<?xml version="1.0" encoding="UTF-8"?>
<svg width="280px" height="32px" viewBox="0 0 280 32" version="1.1" xmlns="http://www.w3.org/2000/svg" xmlns:xlink="http://www.w3.org/1999/xlink">
    <!-- Generator: Sketch 47.1 (45422) - http://www.bohemiancoding.com/sketch -->
    <title>logo</title>
    <desc>Created with Sketch.</desc>
    <defs>
        <path d="M148.309,4.944 L148.309,12 L145.957,12 L145.957,4.944 L144.025,4.944 L144.025,2.952 L150.241,2.952 L150.241,4.944 L148.309,4.944 Z M165.217,6.444 L168.613,6.444 L168.613,2.952 L170.965,2.952 L170.965,12 L168.613,12 L168.613,8.268 L165.217,8.268 L165.217,12 L162.865,12 L162.865,2.952 L165.217,2.952 L165.217,6.444 Z M186.793,6.996 L187.237,6.996 C187.701002,6.996 188.056999,6.90000096 188.305,6.708 C188.553001,6.51599904 188.677,6.2400018 188.677,5.88 C188.677,5.5199982 188.553001,5.24400096 188.305,5.052 C188.056999,4.85999904 187.701002,4.764 187.237,4.764 L186.793,4.764 L186.793,6.996 Z M191.965,12 L189.037,12 L186.793,8.52 L186.793,12 L184.441,12 L184.441,2.952 L188.101,2.952 C188.605003,2.952 189.044998,3.02599926 189.421,3.174 C189.797002,3.32200074 190.106999,3.52399872 190.351,3.78 C190.595001,4.03600128 190.778999,4.33199832 190.903,4.668 C191.027001,5.00400168 191.089,5.36399808 191.089,5.748 C191.089,6.43600344 190.923002,6.99399786 190.591,7.422 C190.258998,7.85000214 189.769003,8.13999924 189.121,8.292 L191.965,12 Z M206.881,2.952 L206.881,12 L204.529,12 L204.529,2.952 L206.881,2.952 Z M221.965,2.952 L224.149,8.46 L226.345,2.952 L228.901,2.952 L225.085,12 L223.213,12 L219.409,2.952 L221.965,2.952 Z M246.577,4.944 L243.781,4.944 L243.781,6.456 L246.421,6.456 L246.421,8.448 L243.781,8.448 L243.781,10.008 L246.577,10.008 L246.577,12 L241.429,12 L241.429,2.952 L246.577,2.952 L246.577,4.944 Z M120.284,21.932 C119.444,21.212 118.592,20.852 117.584,20.852 C115.34,20.852 113.84,22.436 113.84,24.656 C113.84,26.948 115.412,28.448 117.476,28.448 C118.46,28.448 119.42,28.112 120.248,27.452 L120.236,28.364 C119.408,28.892 118.4,29.168 117.512,29.168 C114.932,29.168 113,27.356 113,24.656 C113,22.016 114.968,20.168 117.512,20.168 C118.604,20.168 119.54,20.468 120.308,21.068 L120.284,21.932 Z M133.5725,24.668 C133.5725,25.88 133.0925,27.008 132.2285,27.848 C131.3525,28.7 130.2125,29.168 128.9765,29.168 C127.7285,29.168 126.6005,28.7 125.7365,27.848 C124.8725,26.996 124.3925,25.868 124.3925,24.668 C124.3925,23.444 124.8605,22.316 125.7365,21.464 C126.6005,20.612 127.7165,20.168 128.9765,20.168 C130.2365,20.168 131.3645,20.612 132.2285,21.464 C133.1045,22.316 133.5725,23.456 133.5725,24.668 Z M128.9765,28.472 C131.0765,28.472 132.7445,26.78 132.7445,24.668 C132.7445,22.544 131.0645,20.852 128.9765,20.852 C126.9005,20.852 125.2205,22.532 125.2205,24.668 C125.2205,26.78 126.8765,28.472 128.9765,28.472 Z M138.113,28.94 L138.113,20 L144.185,27.176 L144.185,20.36 L144.917,20.36 L144.917,29.192 L138.845,22.004 L138.845,28.94 L138.113,28.94 Z M149.2055,27.5 L149.8775,27.14 C150.1175,27.992 150.7895,28.472 151.6295,28.472 C152.7095,28.472 153.3575,27.812 153.3575,26.66 C153.3575,25.604 152.7335,25.208 151.7255,24.68 C150.3695,23.972 149.5775,23.42 149.5775,22.22 C149.5775,21.008 150.4775,20.156 151.7975,20.156 C152.6615,20.156 153.2975,20.528 153.6935,21.248 L153.0935,21.608 C152.8535,21.116 152.3735,20.852 151.7495,20.852 C150.8975,20.852 150.3695,21.392 150.3695,22.232 C150.3695,23.276 151.1495,23.516 152.2655,24.128 C153.5255,24.812 154.1015,25.364 154.1015,26.66 C154.1015,28.196 153.1415,29.168 151.5935,29.168 C150.4655,29.168 149.6615,28.604 149.2055,27.5 Z M165.53,21.932 C164.69,21.212 163.838,20.852 162.83,20.852 C160.586,20.852 159.086,22.436 159.086,24.656 C159.086,26.948 160.658,28.448 162.722,28.448 C163.706,28.448 164.666,28.112 165.494,27.452 L165.482,28.364 C164.654,28.892 163.646,29.168 162.758,29.168 C160.178,29.168 158.246,27.356 158.246,24.656 C158.246,22.016 160.214,20.168 162.758,20.168 C163.85,20.168 164.786,20.468 165.554,21.068 L165.53,21.932 Z M170.0465,28.94 L170.0465,20.36 L170.8265,20.36 L170.8265,28.94 L170.0465,28.94 Z M184.547,24.668 C184.547,25.88 184.067,27.008 183.203,27.848 C182.327,28.7 181.187,29.168 179.951,29.168 C178.703,29.168 177.575,28.7 176.711,27.848 C175.847,26.996 175.367,25.868 175.367,24.668 C175.367,23.444 175.835,22.316 176.711,21.464 C177.575,20.612 178.691,20.168 179.951,20.168 C181.211,20.168 182.339,20.612 183.203,21.464 C184.079,22.316 184.547,23.456 184.547,24.668 Z M179.951,28.472 C182.051,28.472 183.719,26.78 183.719,24.668 C183.719,22.544 182.039,20.852 179.951,20.852 C177.875,20.852 176.195,22.532 176.195,24.668 C176.195,26.78 177.851,28.472 179.951,28.472 Z M189.0515,20.36 L189.8195,20.36 L189.8195,25.964 C189.8195,27.644 190.5755,28.472 192.1715,28.472 C193.7555,28.472 194.5115,27.644 194.5115,25.964 L194.5115,20.36 L195.2915,20.36 L195.2915,25.712 C195.2915,28.028 194.2715,29.168 192.1715,29.168 C190.0715,29.168 189.0515,28.028 189.0515,25.712 L189.0515,20.36 Z M199.544,27.5 L200.216,27.14 C200.456,27.992 201.128,28.472 201.968,28.472 C203.048,28.472 203.696,27.812 203.696,26.66 C203.696,25.604 203.072,25.208 202.064,24.68 C200.708,23.972 199.916,23.42 199.916,22.22 C199.916,21.008 200.816,20.156 202.136,20.156 C203,20.156 203.636,20.528 204.032,21.248 L203.432,21.608 C203.192,21.116 202.712,20.852 202.088,20.852 C201.236,20.852 200.708,21.392 200.708,22.232 C200.708,23.276 201.488,23.516 202.604,24.128 C203.864,24.812 204.44,25.364 204.44,26.66 C204.44,28.196 203.48,29.168 201.932,29.168 C200.804,29.168 200,28.604 199.544,27.5 Z M215.261,28.94 L215.261,20.36 L219.509,20.36 L219.509,21.092 L216.041,21.092 L216.041,23.78 L219.377,23.78 L219.377,24.512 L216.041,24.512 L216.041,28.94 L215.261,28.94 Z M222.0215,28.94 L225.7895,20.024 L229.4015,28.94 L228.5495,28.94 L227.4575,26.036 L223.9535,26.036 L222.8135,28.94 L222.0215,28.94 Z M224.2175,25.364 L227.2055,25.364 L225.7415,21.632 L224.2175,25.364 Z M232.514,27.5 L233.186,27.14 C233.426,27.992 234.098,28.472 234.938,28.472 C236.018,28.472 236.666,27.812 236.666,26.66 C236.666,25.604 236.042,25.208 235.034,24.68 C233.678,23.972 232.886,23.42 232.886,22.22 C232.886,21.008 233.786,20.156 235.106,20.156 C235.97,20.156 236.606,20.528 237.002,21.248 L236.402,21.608 C236.162,21.116 235.682,20.852 235.058,20.852 C234.206,20.852 233.678,21.392 233.678,22.232 C233.678,23.276 234.458,23.516 235.574,24.128 C236.834,24.812 237.41,25.364 237.41,26.66 C237.41,28.196 236.45,29.168 234.902,29.168 C233.774,29.168 232.97,28.604 232.514,27.5 Z M241.9625,28.94 L241.9625,20.36 L242.7425,20.36 L242.7425,23.84 L247.4105,23.84 L247.4105,20.36 L248.1905,20.36 L248.1905,28.94 L247.4105,28.94 L247.4105,24.512 L242.7425,24.512 L242.7425,28.94 L241.9625,28.94 Z M253.139,28.94 L253.139,20.36 L253.919,20.36 L253.919,28.94 L253.139,28.94 Z M267.6395,24.668 C267.6395,25.88 267.1595,27.008 266.2955,27.848 C265.4195,28.7 264.2795,29.168 263.0435,29.168 C261.7955,29.168 260.6675,28.7 259.8035,27.848 C258.9395,26.996 258.4595,25.868 258.4595,24.668 C258.4595,23.444 258.9275,22.316 259.8035,21.464 C260.6675,20.612 261.7835,20.168 263.0435,20.168 C264.3035,20.168 265.4315,20.612 266.2955,21.464 C267.1715,22.316 267.6395,23.456 267.6395,24.668 Z M263.0435,28.472 C265.1435,28.472 266.8115,26.78 266.8115,24.668 C266.8115,22.544 265.1315,20.852 263.0435,20.852 C260.9675,20.852 259.2875,22.532 259.2875,24.668 C259.2875,26.78 260.9435,28.472 263.0435,28.472 Z M272.18,28.94 L272.18,20 L278.252,27.176 L278.252,20.36 L278.984,20.36 L278.984,29.192 L272.912,22.004 L272.912,28.94 L272.18,28.94 Z M1,24 L97,24 L97,26 L1,26 L1,24 Z" id="path-1"></path>
    </defs>
    <g id="Symbols" stroke="none" stroke-width="1" fill="none" fill-rule="evenodd">
        <g id="logo">
            <mask id="mask-2" fill="white">
                <use xlink:href="#path-1"></use>
            </mask>
            <use id="Combined-Shape" fill="#000000" xlink:href="#path-1"></use>
            <g id="Dark" mask="url(#mask-2)" fill="#1C0E0E">
                <g transform="translate(110.000000, 0.000000)" id="Rectangle-2">
                    <rect x="0" y="0" width="170" height="32"></rect>
                </g>
            </g>
            <g id="Dark" mask="url(#mask-2)" fill="#1C0E0E">
                <rect id="Rectangle-2" x="0" y="0" width="110" height="32"></rect>
            </g>
        </g>
    </g>
</svg>