<?xml version="1.0" encoding="iso-8859-1"?>
<!-- Generator: Adobe Illustrator 16.0.4, SVG Export Plug-In . SVG Version: 6.00 Build 0)  -->
<!DOCTYPE svg PUBLIC "-//W3C//DTD SVG 1.1//EN" "http://www.w3.org/Graphics/SVG/1.1/DTD/svg11.dtd">
<svg version="1.1" id="Layer_1" xmlns="http://www.w3.org/2000/svg" xmlns:xlink="http://www.w3.org/1999/xlink" x="0px" y="0px"
	 width="1024px" height="500px" viewBox="0 0 1024 500" style="enable-background:new 0 0 1024 500;" xml:space="preserve">
<title>Rattvis Light</title>
<path d="M396.599,303.571c33.839-33.839,67.634-67.648,101.384-101.428c8.035-8.036,8.035-8.036,16.25,0
	c16.19,16.161,32.366,32.336,48.526,48.527c10.134,10.089,18.17,10.268,27.59,0.848c9.419-9.419,9.151-17.366-1.027-27.589
	c-26.785-26.786-53.571-52.902-80.357-79.643c-15.535-15.625-20.848-29.152-47.231-31.964c-13.381-0.814-26.799-0.814-40.179,0
	c-22.321,1.831-35.045,5.67-49.598,17.857c-20.67,17.143-35.045,32.321-34.554,65.178c0,0.893-0.491,17.143,0,29.688
	c-0.491,24.956,28.393,58.616,50.357,80.358C392.402,309.732,394.188,305.848,396.599,303.571z"/>
<path d="M529.857,344.911c-2.6-2.37-6.043-3.593-9.554-3.394c-5.947-0.387-11.538,2.859-14.152,8.215
	c-3.261,5.086-2.846,11.701,1.027,16.339c12.232,13.036,24.866,25.759,37.901,37.991c6.004,5.266,15.12,4.749,20.491-1.161
	c6.116-5.564,6.576-15.029,1.027-21.16C554.679,369.107,542.179,357.143,529.857,344.911z"/>
<path d="M509.634,384.375c-4.634-4.83-11.873-6.079-17.857-3.08c-5.727,2.499-9.414,8.171-9.375,14.419
	c0.271,4.402,2.127,8.557,5.224,11.697c8.214,8.169,16.25,16.518,24.599,24.509c7.589,7.231,16.606,7.41,23.169,0.893
	c6.211-6.376,6.076-16.579-0.301-22.79c-0.164-0.159-0.332-0.316-0.503-0.469C526.523,401.012,518.205,392.619,509.634,384.375z"/>
<path d="M556.911,312.054c-6.002-5.174-14.977-4.843-20.581,0.759c-6.248,5.211-7.09,14.501-1.878,20.75
	c0.103,0.123,0.208,0.246,0.315,0.366c12.857,13.705,26.384,26.785,39.777,40.179c2.651,2.34,6.109,3.557,9.643,3.393
	c5.95,0.298,11.51-2.964,14.151-8.304c3.531-5.391,2.903-12.499-1.518-17.188C583.815,338.378,570.512,325.06,556.911,312.054z"/>
<path d="M685.393,187.5c-4.464-37.232-28.75-55.759-59.241-70.134c-8.639-3.819-18.074-5.489-27.5-4.866
	c-13.965-0.111-27.892,1.478-41.473,4.732c-12.169,3.812-23.566,9.753-33.661,17.545c-4.464,3.304-4.464,5.268-0.357,8.929
	c25.298,25.148,50.521,50.401,75.67,75.759c8.929,8.929,11.027,19.196,6.429,29.286c-5.065,11.414-16.441,18.717-28.929,18.571
	c-6.699-0.665-12.893-3.858-17.321-8.929c-15.312-15.401-30.848-30.625-45.982-46.205c-3.884-3.973-6.071-4.464-10.178,0
	c-35.045,35.402-70.357,70.535-105.536,105.804c-8.393,8.393-8.929,17.5-2.009,24.42c6.92,6.919,16.071,6.25,24.464-2.099
	c17.277-17.143,34.42-34.375,51.652-51.607c1.429-1.428,2.901-2.857,4.464-4.464c2.812-2.946,5.804-5.401,9.465-1.384
	c3.66,4.018,0.625,6.25-1.92,8.928l-60.446,60.224c-3.188,2.537-5.537,5.975-6.741,9.866c-2.271,8.453,2.742,17.146,11.195,19.416
	c5.813,1.562,12.009-0.306,15.992-4.817l58.393-58.349c1.429-1.429,2.902-2.857,4.465-4.464c2.634-2.769,5.401-4.465,8.928-1.116
	c3.527,3.348,1.161,6.25-1.428,8.929l-51.295,51.071c-4.465,4.464-9.241,8.929-13.393,13.705c-5.151,6.009-4.821,14.968,0.759,20.58
	c5.374,5.73,14.141,6.644,20.58,2.144c3.062-1.686,4.588-5.235,3.705-8.616c-2.889-12.921,5.243-25.738,18.164-28.627
	c0.195-0.044,0.391-0.085,0.586-0.123c3.884-1.071,4.866-1.786,3.706-6.206c-4.465-17.188,3.169-28.839,21.115-32.946
	c2.635-0.625,4.465-0.58,4.732-4.464c1.741-24.776,15.982-33.795,38.84-24.776c0.803-2.68,1.428-5.447,2.455-8.036
	c4.887-12.729,19.166-19.087,31.896-14.2c3.086,1.186,5.902,2.978,8.283,5.271c7.5,6.785,14.42,14.241,21.607,21.429
	c1.875,1.875,3.348,3.884,6.205,0.848c12.41-13.393,26.785-24.821,37.143-40.179c6.205-9.195,14.018-19.866,16.562-30.669
	C688.518,224.286,686.911,200,685.393,187.5z"/>
<path d="M596.554,291.83c-5.956-5.315-15.063-4.92-20.536,0.893c-6.089,5.161-6.885,14.263-1.785,20.402
	c9.91,10.893,20.625,21.071,31.25,31.25c2.19,2.02,5.105,3.065,8.08,2.901c6.227,0.49,12.12-2.873,14.866-8.481
	c3.333-5.418,2.6-12.401-1.786-17.009C616.911,311.607,606.955,301.473,596.554,291.83z"/>
</svg>
