<?xml version="1.0" encoding="iso-8859-1"?>
<!-- Generator: Adobe Illustrator 16.0.4, SVG Export Plug-In . SVG Version: 6.00 Build 0)  -->
<!DOCTYPE svg PUBLIC "-//W3C//DTD SVG 1.1//EN" "http://www.w3.org/Graphics/SVG/1.1/DTD/svg11.dtd">
<svg version="1.1" id="Layer_1" xmlns="http://www.w3.org/2000/svg" xmlns:xlink="http://www.w3.org/1999/xlink" x="0px" y="0px"
	 width="1024px" height="500px" viewBox="0 0 1024 500" style="enable-background:new 0 0 1024 500;" xml:space="preserve">
<title>Vegansk Light</title>
<path d="M515.973,336.283c28.036-38.26,69.599-186.473,70.938-191.161c-16.651,138.793-62.5,184.196-70.625,191.428
	c1.071,0.982,2.143,1.875,3.214,2.68l-17.143,36.115l-96.92-210.893c-4.32-9.492-15.518-13.684-25.01-9.363
	c-0.056,0.025-0.112,0.051-0.168,0.077c-9.513,4.513-13.616,15.845-9.196,25.402l112.544,244.867
	c3.286,7.209,10.715,11.609,18.616,11.025c7.988,0.627,15.542-3.717,19.018-10.938l36.474-77.098c0.677-1.42,1.171-2.92,1.473-4.465
	c79.197-22.32,120.536-129.463,43.438-283.481C446.687,235.748,486.91,310.301,515.973,336.283z"/>
<path d="M527.491,315.625l1.741-1.071l-0.312-0.357L527.491,315.625z"/>
<circle style="fill:none;stroke:#000000;stroke-width:19;stroke-miterlimit:10;" cx="506.465" cy="248.5" r="241.5"/>
</svg>
